<svg width="512" height="512" viewBox="0 0 512 512" fill="none" xmlns="http://www.w3.org/2000/svg">
  <!-- Gradient Background -->
  <defs>
    <linearGradient id="shieldGradient" x1="0%" y1="0%" x2="100%" y2="100%">
      <stop offset="0%" style="stop-color:#667eea;stop-opacity:1" />
      <stop offset="100%" style="stop-color:#764ba2;stop-opacity:1" />
    </linearGradient>
    <linearGradient id="checkGradient" x1="0%" y1="0%" x2="100%" y2="100%">
      <stop offset="0%" style="stop-color:#10b981;stop-opacity:1" />
      <stop offset="100%" style="stop-color:#059669;stop-opacity:1" />
    </linearGradient>
  </defs>
  
  <!-- Shield Shape -->
  <path d="M256 48C256 48 128 80 80 80C80 80 64 240 80 352C96 464 256 464 256 464C256 464 416 464 432 352C448 240 432 80 432 80C384 80 256 48 256 48Z" 
        fill="url(#shieldGradient)" 
        stroke="#ffffff" 
        stroke-width="12"/>
  
  <!-- Check Mark / Block Symbol -->
  <path d="M180 256L230 306L332 204" 
        stroke="url(#checkGradient)" 
        stroke-width="32" 
        stroke-linecap="round" 
        stroke-linejoin="round"
        fill="none"/>
  
  <!-- Decorative Block Lines -->
  <circle cx="256" cy="256" r="100" stroke="#ffffff" stroke-width="8" fill="none" opacity="0.3"/>
  <circle cx="256" cy="256" r="120" stroke="#ffffff" stroke-width="4" fill="none" opacity="0.2"/>
</svg>
